<svg width="24" height="24" fill="none" xmlns="http://www.w3.org/2000/svg"><path d="M23.625 12c0 2.875-.938 5.406-2.813 7.594-1.875 2.156-4.203 3.453-6.984 3.89v-8.109h2.719L17.062 12h-3.234V9.797c0-1.188.625-1.781 1.875-1.781h1.453v-2.86a14.647 14.647 0 0 0-2.578-.234c-.906 0-1.687.172-2.344.516-.625.343-1.125.859-1.5 1.546-.375.688-.562 1.5-.562 2.438V12H7.219v3.375h2.953v8.11c-2.781-.438-5.11-1.735-6.985-3.891C1.313 17.406.376 14.875.376 12c0-3.219 1.125-5.953 3.375-8.203C6.031 1.516 8.781.375 12 .375c3.219 0 5.953 1.14 8.203 3.422 2.281 2.25 3.422 4.984 3.422 8.203Z" fill="#00093C" style="fill:color(display-p3 0 .0353 .2353);fill-opacity:1"/></svg>