<svg width="146" height="12" fill="none" xmlns="http://www.w3.org/2000/svg"><path d="M4.848 9.036c-.6 0-1.156-.108-1.668-.324a4.176 4.176 0 0 1-1.344-.9 4.318 4.318 0 0 1-.9-1.356A4.358 4.358 0 0 1 .624 4.8a4.176 4.176 0 0 1 1.224-3A4.084 4.084 0 0 1 3.192.888a4.336 4.336 0 0 1 1.68-.324c.6 0 1.156.108 1.668.324.52.208.968.504 1.344.888.384.384.68.832.888 1.344a4.16 4.16 0 0 1 .324 1.656c0 .6-.108 1.16-.324 1.68a4.219 4.219 0 0 1-2.256 2.256 4.247 4.247 0 0 1-1.668.324Zm-.012-.444c.544 0 1.044-.096 1.5-.288a3.89 3.89 0 0 0 1.2-.816 3.6 3.6 0 0 0 .816-1.212c.192-.472.288-.972.288-1.5 0-.536-.096-1.032-.288-1.488a3.566 3.566 0 0 0-.792-1.2 3.415 3.415 0 0 0-1.2-.792 3.795 3.795 0 0 0-1.488-.288c-.544 0-1.048.096-1.512.288a3.6 3.6 0 0 0-1.212.816A3.795 3.795 0 0 0 1.068 4.8c0 .528.096 1.024.288 1.488.192.456.456.86.792 1.212a3.722 3.722 0 0 0 2.688 1.092Zm.12-1.296c-.48 0-.908-.104-1.284-.312a2.366 2.366 0 0 1-.888-.888A2.555 2.555 0 0 1 2.46 4.8c0-.488.108-.92.324-1.296a2.28 2.28 0 0 1 .888-.876 2.531 2.531 0 0 1 1.284-.324c.408 0 .776.084 1.104.252.336.16.604.384.804.672l-.516.384a1.571 1.571 0 0 0-.612-.516 1.85 1.85 0 0 0-.792-.168c-.344 0-.652.08-.924.24a1.707 1.707 0 0 0-.636.648c-.16.28-.24.608-.24.984s.08.704.24.984c.16.28.372.5.636.66.272.152.58.228.924.228.288 0 .552-.056.792-.168.24-.112.444-.284.612-.516l.516.372c-.2.296-.468.528-.804.696-.328.16-.696.24-1.104.24ZM13.324.6h1.02l2.388 3.324L19.108.6h1.044l-2.868 4.032L20.38 9h-1.044l-2.604-3.612L14.128 9h-1.02l3.084-4.332L13.324.6Zm12.12 8.472c-.632 0-1.22-.104-1.764-.312a4.355 4.355 0 0 1-1.404-.9 4.387 4.387 0 0 1-.924-1.356 4.399 4.399 0 0 1-.324-1.704c0-.616.108-1.18.324-1.692.224-.52.532-.972.924-1.356.4-.392.868-.692 1.404-.9a4.677 4.677 0 0 1 1.764-.324c.632 0 1.216.108 1.752.324.536.208 1 .504 1.392.888.4.384.708.836.924 1.356.224.52.336 1.088.336 1.704 0 .616-.112 1.184-.336 1.704-.216.52-.524.972-.924 1.356a4.217 4.217 0 0 1-1.392.9 4.802 4.802 0 0 1-1.752.312Zm0-.792c.504 0 .968-.084 1.392-.252a3.34 3.34 0 0 0 1.116-.732c.32-.32.568-.688.744-1.104.176-.424.264-.888.264-1.392 0-.504-.088-.964-.264-1.38a3.28 3.28 0 0 0-.744-1.104 3.114 3.114 0 0 0-1.116-.732 3.596 3.596 0 0 0-1.392-.264c-.504 0-.972.088-1.404.264a3.233 3.233 0 0 0-1.128.732c-.312.312-.56.68-.744 1.104a3.507 3.507 0 0 0-.264 1.38c0 .496.088.956.264 1.38.184.424.432.796.744 1.116.32.312.696.556 1.128.732.432.168.9.252 1.404.252Zm11.868.3V1.368h-4.02l-.072 2.04c-.024.632-.064 1.24-.12 1.824a10.334 10.334 0 0 1-.24 1.56c-.104.456-.248.828-.432 1.116-.176.288-.408.456-.696.504l-.972-.18c.32.016.584-.1.792-.348.216-.248.38-.596.492-1.044.12-.448.208-.972.264-1.572.056-.6.096-1.248.12-1.944L32.524.6h5.664v7.98h-.876Zm-6.864 2.304.012-2.652h8.988v2.652h-.828V9h-7.332l-.012 1.884h-.828Zm10.115-.132.528-2.22.096.516a.66.66 0 0 1-.468-.18.633.633 0 0 1-.18-.468c0-.192.06-.348.18-.468.128-.12.28-.18.456-.18.184 0 .332.064.444.192.12.128.18.28.18.456a1.34 1.34 0 0 1-.06.408c-.024.08-.056.176-.096.288l-.504 1.656h-.576Zm7.171-6.084h4.44v.768h-4.44v-.768ZM47.83 9h-.888V.6h5.76v.768H47.83V9Zm8.919.06c-.536 0-1.004-.1-1.404-.3-.4-.2-.712-.5-.936-.9-.216-.4-.324-.9-.324-1.5V2.7h.852v3.564c0 .672.164 1.18.492 1.524.336.336.804.504 1.404.504.44 0 .82-.088 1.14-.264.328-.184.576-.448.744-.792.176-.344.264-.756.264-1.236V2.7h.852V9h-.816V7.272l.132.312c-.2.464-.512.828-.936 1.092-.416.256-.904.384-1.464.384Zm7.45 0c-.591 0-1.047-.16-1.367-.48-.32-.32-.48-.772-.48-1.356V1.308h.852v5.868c0 .368.091.652.276.852.192.2.464.3.816.3.375 0 .688-.108.935-.324l.3.612a1.57 1.57 0 0 1-.612.336 2.415 2.415 0 0 1-.72.108Zm-2.975-5.652V2.7h3.9v.708h-3.9Zm8.462 5.652c-.536 0-1.004-.1-1.404-.3-.4-.2-.712-.5-.935-.9-.216-.4-.325-.9-.325-1.5V2.7h.852v3.564c0 .672.165 1.18.493 1.524.335.336.803.504 1.403.504.44 0 .82-.088 1.14-.264a1.78 1.78 0 0 0 .745-.792c.175-.344.263-.756.263-1.236V2.7h.852V9h-.816V7.272l.133.312c-.2.464-.513.828-.937 1.092-.416.256-.904.384-1.464.384ZM75.145 9V2.7h.816v1.716l-.084-.3c.176-.48.472-.844.888-1.092.416-.256.932-.384 1.548-.384v.828h-.096a.395.395 0 0 0-.096-.012c-.664 0-1.184.204-1.56.612-.376.4-.564.972-.564 1.716V9h-.852Zm7.34.06c-.656 0-1.232-.136-1.728-.408a3.064 3.064 0 0 1-1.164-1.14c-.28-.488-.42-1.044-.42-1.668 0-.624.132-1.176.396-1.656a2.99 2.99 0 0 1 1.104-1.128c.472-.28 1-.42 1.584-.42.592 0 1.116.136 1.572.408a2.8 2.8 0 0 1 1.092 1.128c.264.48.396 1.036.396 1.668 0 .04-.004.084-.012.132v.132h-5.484v-.636h5.028l-.336.252c0-.456-.1-.86-.3-1.212a2.11 2.11 0 0 0-.792-.84c-.336-.2-.724-.3-1.164-.3-.432 0-.82.1-1.164.3-.344.2-.612.48-.804.84-.192.36-.288.772-.288 1.236v.132c0 .48.104.904.312 1.272.216.36.512.644.888.852.384.2.82.3 1.308.3.384 0 .74-.068 1.068-.204.336-.136.624-.344.864-.624l.48.552c-.28.336-.632.592-1.056.768a3.507 3.507 0 0 1-1.38.264ZM89.028 9l3.84-8.4h.876l3.84 8.4h-.936L93.12 1.116h.36L89.952 9h-.924Zm1.512-2.244.264-.72h4.884l.264.72H90.54Zm10.81 2.304a3.436 3.436 0 0 1-1.68-.408 3.09 3.09 0 0 1-1.152-1.14c-.28-.488-.42-1.044-.42-1.668 0-.632.14-1.188.42-1.668.28-.48.664-.856 1.152-1.128a3.436 3.436 0 0 1 1.68-.408c.536 0 1.02.104 1.452.312.432.208.772.52 1.02.936l-.636.432a2 2 0 0 0-.804-.708 2.402 2.402 0 0 0-1.044-.228c-.448 0-.852.104-1.212.312-.36.2-.644.484-.852.852-.208.368-.312.8-.312 1.296s.104.928.312 1.296c.208.368.492.656.852.864.36.2.764.3 1.212.3.376 0 .724-.076 1.044-.228.32-.152.588-.384.804-.696l.636.432c-.248.408-.588.72-1.02.936a3.304 3.304 0 0 1-1.452.312Zm8.094-.06V7.608l-.036-.228V5.052c0-.536-.152-.948-.456-1.236-.296-.288-.74-.432-1.332-.432a3.33 3.33 0 0 0-1.164.204c-.368.136-.68.316-.936.54l-.384-.636c.32-.272.704-.48 1.152-.624.448-.152.92-.228 1.416-.228.816 0 1.444.204 1.884.612.448.4.672 1.012.672 1.836V9h-.816Zm-2.172.06c-.472 0-.884-.076-1.236-.228a1.89 1.89 0 0 1-.792-.648c-.184-.28-.276-.6-.276-.96 0-.328.076-.624.228-.888.16-.272.416-.488.768-.648.36-.168.84-.252 1.44-.252h2.172v.636h-2.148c-.608 0-1.032.108-1.272.324a1.054 1.054 0 0 0-.348.804c0 .36.14.648.42.864.28.216.672.324 1.176.324.48 0 .892-.108 1.236-.324.352-.224.608-.544.768-.96l.192.588c-.16.416-.44.748-.84.996-.392.248-.888.372-1.488.372Zm7.81 0c-.6 0-1.14-.136-1.62-.408a2.964 2.964 0 0 1-1.116-1.128c-.272-.488-.408-1.048-.408-1.68 0-.64.136-1.2.408-1.68.272-.48.644-.852 1.116-1.116a3.228 3.228 0 0 1 1.62-.408c.552 0 1.044.124 1.476.372.44.248.788.612 1.044 1.092.264.472.396 1.052.396 1.74 0 .68-.128 1.26-.384 1.74s-.604.848-1.044 1.104c-.432.248-.928.372-1.488.372Zm.06-.756c.448 0 .848-.1 1.2-.3.36-.208.64-.496.84-.864.208-.376.312-.808.312-1.296 0-.496-.104-.928-.312-1.296-.2-.368-.48-.652-.84-.852a2.314 2.314 0 0 0-1.2-.312c-.44 0-.836.104-1.188.312-.352.2-.632.484-.84.852-.208.368-.312.8-.312 1.296 0 .488.104.92.312 1.296.208.368.488.656.84.864.352.2.748.3 1.188.3Zm2.376.696V7.104l.084-1.272-.12-1.272V.096h.852V9h-.816Zm5.865.06c-.656 0-1.232-.136-1.728-.408a3.064 3.064 0 0 1-1.164-1.14c-.28-.488-.42-1.044-.42-1.668 0-.624.132-1.176.396-1.656a2.99 2.99 0 0 1 1.104-1.128c.472-.28 1-.42 1.584-.42.592 0 1.116.136 1.572.408a2.8 2.8 0 0 1 1.092 1.128c.264.48.396 1.036.396 1.668 0 .04-.004.084-.012.132v.132h-5.484v-.636h5.028l-.336.252c0-.456-.1-.86-.3-1.212a2.11 2.11 0 0 0-.792-.84c-.336-.2-.724-.3-1.164-.3-.432 0-.82.1-1.164.3-.344.2-.612.48-.804.84-.192.36-.288.772-.288 1.236v.132c0 .48.104.904.312 1.272.216.36.512.644.888.852.384.2.82.3 1.308.3.384 0 .74-.068 1.068-.204.336-.136.624-.344.864-.624l.48.552c-.28.336-.632.592-1.056.768a3.507 3.507 0 0 1-1.38.264Zm12.438-6.42c.512 0 .956.1 1.332.3.384.192.68.488.888.888.216.4.324.904.324 1.512V9h-.852V5.424c0-.664-.16-1.164-.48-1.5-.312-.344-.756-.516-1.332-.516-.432 0-.808.092-1.128.276a1.82 1.82 0 0 0-.732.78c-.168.336-.252.744-.252 1.224V9h-.852V5.424c0-.664-.16-1.164-.48-1.5-.32-.344-.768-.516-1.344-.516a2.2 2.2 0 0 0-1.116.276 1.8 1.8 0 0 0-.744.78c-.168.336-.252.744-.252 1.224V9h-.852V2.7h.816v1.704l-.132-.3c.192-.456.5-.812.924-1.068.432-.264.94-.396 1.524-.396.616 0 1.14.156 1.572.468.432.304.712.764.84 1.38l-.336-.132c.184-.512.508-.924.972-1.236.472-.32 1.036-.48 1.692-.48Zm4.785 8.748c-.296 0-.58-.048-.852-.144a1.846 1.846 0 0 1-.684-.432l.396-.636c.16.152.332.268.516.348.192.088.404.132.636.132.28 0 .52-.08.72-.24.208-.152.404-.424.588-.816l.408-.924.096-.132 2.592-5.844h.84l-3.156 7.056c-.176.408-.372.732-.588.972-.208.24-.436.408-.684.504a2.121 2.121 0 0 1-.828.156Zm1.68-2.208-2.904-6.48h.888l2.568 5.784-.552.696Z" fill="#BDBDBD" style="fill:color(display-p3 .7412 .7412 .7412);fill-opacity:1"/></svg>