<svg width="98" height="98" fill="none" xmlns="http://www.w3.org/2000/svg"><path d="M19.893 83.021c-10.247 0-18.581-8.334-18.581-18.58 0-10.248 8.334-18.582 18.58-18.582 10.248 0 18.582 8.334 18.582 18.581 0 10.304-8.332 18.581-18.581 18.581Zm47.12-81.816.005-.007a.345.345 0 0 1 .307-.182.45.45 0 0 1 .368.21l21.23 34.69.005.009a.496.496 0 0 1 .012.494c-.081.157-.208.23-.35.23H46.105a.38.38 0 0 1-.354-.214.54.54 0 0 1 .026-.527L67.013 1.205Zm-28.705 8.14-.02.017-.018.019-8.426 8.426c-.925.924-.925 2.507 0 3.431l8.426 8.426c.143.143.143.46 0 .603l-7.655 7.655c-.143.143-.46.143-.603 0l-8.426-8.426c-.924-.925-2.507-.925-3.431 0l-8.426 8.426c-.144.143-.46.143-.603 0L1.47 30.267c-.143-.143-.143-.46 0-.603l8.426-8.426c.925-.924.925-2.507 0-3.431L1.471 9.38c-.143-.144-.143-.46 0-.603l7.655-7.655c.143-.143.46-.143.603 0l8.426 8.426c.924.925 2.507.925 3.431 0l8.426-8.426c.144-.143.46-.143.603 0l7.655 7.655a.464.464 0 0 1 .152.323.317.317 0 0 1-.114.244ZM71.196 69.86l-3.747-6.8m0 0-3.747-6.802c-.468-.85-1.578-.96-2.627-.769-.742.136-1.18.377-1.69.932-.723.785-1.222 1.78-.755 2.631l9.368 17.002c1.293 2.348-6.154-1.8-6.568-1.922-1.313-.384-3.85 1.013-2.444 3.563.286.52 15.026 10.89 19.059 13.721a1.98 1.98 0 0 0 2.102.108l12.833-7.07a1.967 1.967 0 0 0 .98-2.149c-.511-2.307-1.595-6.908-2.775-10.16-1.55-4.276-4.306-9.817-4.775-10.667-1.32-2.394-6.945-.607-6.945-.607M67.449 63.06s1.873-1.806 3.38-1.863c1.067-.04 2.628.77 2.628.77m0 0 2.81 5.1m-2.81-5.1s.286-3.483 5.072-2.795c.175.025.936 1.7.936 1.7m2.81 5.1-2.81-5.1" stroke="#00093C" style="stroke:color(display-p3 0 .0353 .2353);stroke-opacity:1" stroke-width="2"/></svg>