<svg width="22" height="22" fill="none" xmlns="http://www.w3.org/2000/svg"><path d="M6.703 7.203C7.766 6.141 9.047 5.61 10.547 5.61s2.765.532 3.797 1.594C15.406 8.234 15.938 9.5 15.938 11s-.532 2.781-1.594 3.844c-1.031 1.031-2.297 1.547-3.797 1.547s-2.781-.516-3.844-1.547C5.672 13.78 5.156 12.5 5.156 11s.516-2.766 1.547-3.797Zm1.36 6.281a3.386 3.386 0 0 0 2.484 1.032c.969 0 1.797-.344 2.484-1.032A3.386 3.386 0 0 0 14.062 11c0-.969-.343-1.797-1.03-2.484a3.386 3.386 0 0 0-2.485-1.032c-.969 0-1.797.344-2.485 1.032A3.386 3.386 0 0 0 7.032 11c0 .969.343 1.797 1.03 2.484Zm8.953-8.953c.25.219.375.5.375.844s-.125.64-.375.89c-.22.25-.5.376-.844.376s-.64-.125-.89-.375a1.217 1.217 0 0 1-.376-.891c0-.344.125-.625.375-.844.25-.25.547-.375.89-.375.345 0 .626.125.845.375ZM21 6.688c.031.843.047 2.28.047 4.312 0 2.031-.016 3.469-.047 4.313-.094 1.906-.672 3.39-1.734 4.453-1.032 1.03-2.5 1.578-4.407 1.64-.843.063-2.28.094-4.312.094-2.031 0-3.469-.031-4.313-.094-1.906-.093-3.375-.656-4.406-1.687a4.524 4.524 0 0 1-.984-1.313c-.25-.5-.438-.984-.563-1.453a8.448 8.448 0 0 1-.14-1.64C.078 14.469.047 13.03.047 11c0-2.031.031-3.484.094-4.36.093-1.874.656-3.327 1.687-4.359C2.86 1.22 4.328.641 6.234.547 7.078.516 8.516.5 10.547.5c2.031 0 3.469.016 4.312.047 1.907.094 3.375.672 4.407 1.734 1.062 1.031 1.64 2.5 1.734 4.406Zm-2.25 10.5c.094-.25.172-.563.234-.938.063-.406.11-.875.141-1.406.031-.563.047-1.016.047-1.36V8.516c0-.344-.016-.782-.047-1.313a13.252 13.252 0 0 0-.14-1.406 5.075 5.075 0 0 0-.235-.984c-.375-.97-1.047-1.641-2.016-2.016a5.08 5.08 0 0 0-.984-.235 13.36 13.36 0 0 0-1.406-.14 23.159 23.159 0 0 0-1.313-.047H8.062c-.343 0-.796.016-1.359.047-.531.031-1 .078-1.406.14a5.128 5.128 0 0 0-.938.235c-.968.375-1.64 1.047-2.015 2.015a5.08 5.08 0 0 0-.235.985 13.36 13.36 0 0 0-.14 1.406c-.032.531-.047.969-.047 1.313v5.625c.031.468.062.875.094 1.218a12.434 12.434 0 0 0 .328 1.829c.406.968 1.078 1.64 2.015 2.015.25.094.563.172.938.235.406.062.875.109 1.406.14.563.031 1 .047 1.313.047h5.014c.344 0 .781-.016 1.313-.047a13.254 13.254 0 0 0 1.406-.14c.406-.063.734-.141.984-.235.97-.406 1.641-1.078 2.016-2.015Z" fill="#00093C" style="fill:color(display-p3 0 .0353 .2353);fill-opacity:1"/></svg>