<svg width="100" height="71" fill="none" xmlns="http://www.w3.org/2000/svg"><path d="M16.467 70.647C7.385 70.647 0 63.26 0 54.179s7.385-16.467 16.467-16.467c9.082 0 16.467 7.386 16.467 16.467 0 9.132-7.385 16.468-16.467 16.468Z" fill="#00093C" style="fill:color(display-p3 0 .0353 .2353);fill-opacity:1"/><path d="M16.467 70.646C7.385 70.646 0 63.261 0 54.18c0-9.082 7.385-16.467 16.467-16.467 9.082 0 16.467 7.385 16.467 16.467 0 9.132-7.385 16.467-16.467 16.467ZM55.39 1.834 37.525 31.026c-.499.848.05 1.896.998 1.896h35.729c.948 0 1.497-1.098.998-1.896L57.386 1.834c-.5-.749-1.547-.749-1.997 0Zm-22.805 4.94L26.147.337c-.449-.45-1.247-.45-1.696 0l-7.086 7.086c-.449.449-1.247.449-1.696 0L8.582.337c-.45-.45-1.248-.45-1.697 0L.449 6.774c-.45.45-.45 1.247 0 1.697l7.086 7.085c.449.45.449 1.248 0 1.697L.449 24.339c-.45.449-.45 1.247 0 1.697l6.437 6.437c.45.449 1.248.449 1.697 0l7.085-7.086c.45-.45 1.248-.45 1.697 0l7.086 7.086c.449.449 1.247.449 1.697 0l6.437-6.438c.449-.449.449-1.247 0-1.696l-7.086-7.086c-.45-.45-.45-1.247 0-1.697l7.086-7.085c.499-.45.499-1.198 0-1.697Z" fill="#00093C" style="fill:color(display-p3 0 .0353 .2353);fill-opacity:1"/><path d="M40.669 49.09v2.095h3.642v1.447H40.67v2.844h-1.797v-7.834h5.888v1.447H40.67Zm6.537 5.588c-.599-.599-.948-1.497-.948-2.645v-4.39h1.796v4.29c0 1.398.599 2.096 1.747 2.096.548 0 .998-.15 1.297-.499.3-.349.45-.848.45-1.596v-4.292h1.795v4.391c0 1.148-.299 2.046-.948 2.645-.598.599-1.497.948-2.594.948-1.098 0-1.996-.35-2.595-.948Zm9.73-5.538h-2.495v-1.498h6.786v1.497h-2.494v6.337h-1.797V49.14Zm6.337 5.538c-.599-.599-.948-1.497-.948-2.645v-4.39h1.797v4.29c0 1.398.598 2.096 1.746 2.096.549 0 .998-.15 1.297-.499.3-.349.45-.848.45-1.596v-4.292h1.796v4.391c0 1.148-.3 2.046-.948 2.645-.599.599-1.497.948-2.595.948s-1.946-.35-2.595-.948Zm13.224.799L75 53.28h-1.697v2.196h-1.796v-7.785H74.9c.699 0 1.298.1 1.797.35.499.25.898.549 1.197.998.25.399.4.948.4 1.497 0 .599-.15 1.098-.4 1.497-.3.399-.698.748-1.197.948l1.746 2.495h-1.946Zm-.449-5.988c-.3-.25-.699-.35-1.248-.35h-1.496v2.745H74.8c.55 0 .949-.1 1.248-.35.3-.249.4-.548.4-.997.05-.5-.1-.799-.4-1.048Zm10.08 4.541v1.446H80.09v-7.834h5.888v1.447h-4.092v1.697h3.593v1.447h-3.593v1.796h4.242ZM44.012 68.25h-3.643l-.698 1.698h-1.847l3.493-7.785h1.797l3.493 7.785H44.71l-.699-1.697Zm-.549-1.346-1.247-2.994-1.248 2.994h2.495Zm5.739 2.644a3.801 3.801 0 0 1-1.497-1.447 4.095 4.095 0 0 1-.55-2.096c0-.748.2-1.447.55-2.095.349-.6.898-1.098 1.497-1.448.648-.349 1.347-.499 2.145-.499.699 0 1.298.1 1.847.35.549.25.998.598 1.397 1.048l-1.148 1.048c-.549-.6-1.197-.899-1.946-.899-.499 0-.898.1-1.297.3-.4.2-.699.499-.899.898-.2.4-.299.798-.299 1.297 0 .5.1.898.3 1.298.2.399.498.698.898.898.399.2.798.3 1.297.3.798 0 1.447-.3 1.946-.949l1.148 1.048c-.35.45-.848.799-1.397 1.048-.55.25-1.148.35-1.847.35-.748.05-1.497-.1-2.145-.45Zm11.926-1.298h-3.643l-.699 1.698H54.94l3.493-7.785h1.797l3.492 7.785h-1.896l-.698-1.697Zm-.55-1.346-1.247-2.994-1.247 2.994h2.495Zm4.292-4.791h3.543c.849 0 1.597.15 2.246.5.648.299 1.147.798 1.497 1.347.35.598.549 1.247.549 2.045 0 .799-.2 1.448-.55 2.046A3.277 3.277 0 0 1 70.66 69.4a5.31 5.31 0 0 1-2.246.499H64.87v-7.785Zm3.444 6.338c.798 0 1.397-.2 1.846-.65.449-.448.698-1.047.698-1.746 0-.748-.25-1.347-.698-1.746-.45-.45-1.098-.649-1.846-.649h-1.647v4.84h1.647v-.05Zm12.126.049v1.448H74.4v-7.835h5.888v1.447h-4.091v1.697h3.642v1.397h-3.642v1.847h4.241Zm8.881 1.448v-4.691l-2.295 3.842h-.798l-2.296-3.742v4.59h-1.696v-7.834h1.497l2.894 4.84 2.894-4.84h1.497v7.835h-1.697Zm7.635-2.795v2.795H95.16v-2.795l-3.044-5.04h1.946l2.096 3.493 2.046-3.493H100l-3.044 5.04Z" fill="#000" style="fill:#000;fill-opacity:1"/></svg>