<svg width="57" height="41" fill="none" xmlns="http://www.w3.org/2000/svg"><path d="M9.386 40.268C4.21 40.268 0 36.058 0 30.882c0-5.177 4.21-9.386 9.386-9.386 5.177 0 9.387 4.21 9.387 9.386a9.377 9.377 0 0 1-9.387 9.386Z" fill="#fff" style="fill:#fff;fill-opacity:1"/><path d="M9.386 40.268C4.21 40.268 0 36.058 0 30.882c0-5.177 4.21-9.386 9.386-9.386 5.177 0 9.387 4.21 9.387 9.386a9.377 9.377 0 0 1-9.387 9.386ZM31.571 1.045l-10.183 16.64c-.284.483.029 1.08.57 1.08h20.364c.54 0 .853-.626.569-1.08L32.709 1.044c-.285-.427-.882-.427-1.138 0ZM18.572 3.861 14.902.192a.705.705 0 0 0-.966 0l-4.04 4.039a.705.705 0 0 1-.966 0L4.89.192a.705.705 0 0 0-.966 0l-3.67 3.67a.705.705 0 0 0 0 .966l4.04 4.04a.705.705 0 0 1 0 .966l-4.04 4.04a.705.705 0 0 0 0 .966l3.67 3.67a.705.705 0 0 0 .967 0l4.039-4.04a.705.705 0 0 1 .967 0l4.039 4.04a.705.705 0 0 0 .967 0l3.669-3.67a.705.705 0 0 0 0-.967l-4.039-4.039a.705.705 0 0 1 0-.967l4.039-4.039c.284-.256.284-.682 0-.967ZM23.18 27.98v1.195h2.077V30H23.18v1.622h-1.024v-4.466h3.357v.825H23.18Zm3.728 3.186c-.342-.34-.54-.853-.54-1.507v-2.503h1.023v2.446c0 .796.342 1.195.996 1.195.313 0 .569-.086.74-.285.17-.199.255-.483.255-.91v-2.446h1.024v2.503c0 .654-.17 1.166-.54 1.508-.342.34-.854.54-1.48.54-.625 0-1.137-.2-1.478-.54Zm5.545-3.156h-1.422v-.854H34.9v.853h-1.423v3.613h-1.024v-3.613Zm3.611 3.156c-.342-.34-.54-.853-.54-1.507v-2.503h1.023v2.446c0 .796.342 1.195.996 1.195.313 0 .569-.086.74-.285.17-.199.255-.483.255-.91v-2.446h1.024v2.503c0 .654-.17 1.166-.54 1.508-.341.34-.853.54-1.48.54-.625 0-1.108-.2-1.478-.54Zm7.538.456-.853-1.252h-.967v1.252h-1.024v-4.437h1.934c.398 0 .74.056 1.024.199.284.142.512.313.682.569.143.227.228.54.228.853 0 .341-.085.626-.227.853a1.61 1.61 0 0 1-.683.54l.995 1.423h-1.109Zm-.256-3.413c-.17-.143-.398-.2-.71-.2h-.854v1.565h.853c.313 0 .54-.057.711-.2.17-.141.228-.312.228-.568.028-.285-.057-.455-.228-.598Zm5.748 2.588v.825h-3.442v-4.466h3.357v.825h-2.333v.967h2.048v.825h-2.048v1.024h2.418Zm-24.009 8.106H23.01l-.398.967H21.56l1.99-4.437h1.025l1.99 4.437h-1.08l-.399-.967Zm-.312-.768-.711-1.706-.712 1.706h1.423Zm3.272 1.507a2.163 2.163 0 0 1-.853-.824c-.2-.342-.313-.74-.313-1.195 0-.427.114-.825.313-1.195.199-.34.512-.625.853-.825.37-.199.768-.284 1.223-.284.398 0 .74.057 1.052.2.313.141.57.34.797.596l-.654.598c-.313-.342-.683-.512-1.11-.512-.284 0-.512.057-.74.17a1.116 1.116 0 0 0-.511.512c-.114.228-.17.456-.17.74s.056.512.17.74c.114.227.284.398.512.511.227.114.455.171.74.171.454 0 .824-.17 1.109-.54l.654.597c-.2.256-.484.455-.797.597-.312.143-.654.2-1.052.2a2.264 2.264 0 0 1-1.223-.257Zm6.798-.739h-2.076l-.398.967h-1.053l1.991-4.437h1.024l1.991 4.437h-1.08l-.399-.967Zm-.313-.768-.71-1.706-.712 1.706h1.423Zm2.447-2.731h2.019c.484 0 .91.086 1.28.285.37.17.654.455.853.768.2.341.313.711.313 1.166 0 .455-.114.825-.313 1.166a1.858 1.858 0 0 1-.853.768c-.37.17-.796.285-1.28.285h-2.02v-4.438Zm1.962 3.613c.455 0 .797-.114 1.053-.37.256-.256.398-.597.398-.995 0-.427-.142-.768-.398-.996-.256-.256-.626-.37-1.053-.37h-.938v2.76h.938v-.03Zm6.913.028v.825H42.41v-4.465h3.357v.824h-2.333v.968h2.077v.796h-2.077v1.052h2.418Zm5.062.825v-2.673l-1.309 2.19h-.454l-1.309-2.134v2.617h-.967v-4.465h.853l1.65 2.758 1.65-2.758h.853v4.465h-.967Zm4.353-1.593v1.593h-1.024v-1.593l-1.735-2.873h1.11l1.194 1.992 1.166-1.992h1.024l-1.735 2.873Z" fill="#fff" style="fill:#fff;fill-opacity:1"/></svg>