<svg width="50" height="51" fill="none" xmlns="http://www.w3.org/2000/svg"><path d="M28.422 24.29c.147.293.44.452.745.452a.854.854 0 0 0 .378-.085c.05-.025 4.957-2.515 7.374-3.285a.826.826 0 0 0 .538-1.05.837.837 0 0 0-1.05-.549c-2.552.806-7.423 3.284-7.63 3.382-.392.232-.563.732-.355 1.135Zm.745-9.535a.854.854 0 0 0 .378-.085c.05-.025 4.957-2.515 7.374-3.284a.826.826 0 0 0 .538-1.05.837.837 0 0 0-1.05-.55c-2.552.806-7.423 3.284-7.63 3.382a.832.832 0 0 0-.367 1.123c.17.293.464.464.757.464Z" fill="#00093C" style="fill:color(display-p3 0 .0353 .2353);fill-opacity:1"/><path d="M49.177 13.083a.831.831 0 0 0-.83.83v32.5a2.506 2.506 0 0 1-2.503 2.503h-20.01v-1.917c1.22-.428 4.383-1.416 7.496-1.416 7.264 0 12.184 1.611 12.233 1.623a.849.849 0 0 0 .745-.11.816.816 0 0 0 .342-.671V9.75a.837.837 0 0 0-.647-.818s-.66-.147-1.77-.354a.824.824 0 0 0-.965.671.842.842 0 0 0 .671.977c.428.073.782.146 1.063.207v34.88c-1.893-.5-6.08-1.39-11.672-1.39-3.626 0-7.203 1.196-8.302 1.598-.977-.44-3.944-1.599-7.533-1.599-5.738 0-10.475.952-12.502 1.428V10.397c1.66-.415 6.58-1.477 12.502-1.477 3.04 0 5.64.952 6.666 1.38v32.792c0 .305.159.574.427.72a.833.833 0 0 0 .843-.012c.085-.049 8.338-4.981 15.664-7.423a.828.828 0 0 0 .574-.794V1.412a.85.85 0 0 0-.354-.684.822.822 0 0 0-.77-.097C33.88 3.133 27.128 7.332 27.067 7.369a.833.833 0 1 0 .879 1.416c.06-.036 5.933-3.687 12.062-6.153v32.353c-5.69 1.978-11.635 5.201-14.174 6.654V9.75a.842.842 0 0 0-.464-.744c-.147-.073-3.565-1.758-7.875-1.758-7.533 0-13.32 1.624-13.564 1.697a.828.828 0 0 0-.598.806v36.675c0 .256.122.513.33.66a.83.83 0 0 0 .5.17.767.767 0 0 0 .232-.037c.061-.012 5.824-1.636 13.112-1.636 3.053 0 5.653.953 6.666 1.38v1.953H4.163a2.506 2.506 0 0 1-2.503-2.502v-32.5a.831.831 0 0 0-1.66 0v32.5a4.168 4.168 0 0 0 4.163 4.163h41.669a4.168 4.168 0 0 0 4.163-4.163v-32.5a.82.82 0 0 0-.818-.83Z" fill="#00093C" style="fill:color(display-p3 0 .0353 .2353);fill-opacity:1"/><path d="M28.422 19.297c.147.293.44.452.745.452a.854.854 0 0 0 .378-.086c.05-.024 4.957-2.515 7.374-3.284a.826.826 0 0 0 .538-1.05.837.837 0 0 0-1.05-.55c-2.552.806-7.423 3.285-7.63 3.383a.867.867 0 0 0-.355 1.135Zm0 9.999c.147.293.44.452.745.452a.854.854 0 0 0 .378-.086c.05-.024 4.957-2.515 7.374-3.284a.826.826 0 0 0 .538-1.05.837.837 0 0 0-1.05-.55c-2.552.807-7.423 3.285-7.63 3.383a.867.867 0 0 0-.355 1.135ZM20.193 16.05c-5.152-1.21-11 .33-11.244.39a.836.836 0 0 0-.586 1.026c.098.366.44.622.806.622.073 0 .146-.012.22-.024.06-.012 5.689-1.502 10.426-.378a.828.828 0 0 0 1.001-.623.83.83 0 0 0-.623-1.013Zm0 4.993c-5.152-1.209-11 .33-11.244.403a.836.836 0 0 0-.586 1.025c.098.366.44.623.806.623.073 0 .146-.012.22-.024.06-.013 5.689-1.502 10.426-.379a.828.828 0 0 0 1.001-.623.847.847 0 0 0-.623-1.025Zm8.229 13.259c.147.293.44.451.745.451a.854.854 0 0 0 .378-.085c.05-.024 4.957-2.515 7.374-3.284a.826.826 0 0 0 .538-1.05.837.837 0 0 0-1.05-.55c-2.552.806-7.423 3.285-7.63 3.382a.867.867 0 0 0-.355 1.136Zm-8.229-8.254c-5.152-1.208-11 .33-11.244.403a.836.836 0 0 0-.586 1.026c.098.378.44.622.806.622.073 0 .146-.012.22-.024.06-.012 5.689-1.502 10.426-.378a.828.828 0 0 0 1.001-.623.842.842 0 0 0-.623-1.026Zm0 9.999c-5.152-1.208-11 .33-11.244.391a.836.836 0 0 0-.586 1.026c.098.378.44.622.806.622.073 0 .146-.012.22-.024.06-.012 5.689-1.502 10.426-.379a.84.84 0 0 0 .378-1.636Zm0-4.993c-5.152-1.209-11 .33-11.244.403a.836.836 0 0 0-.586 1.026c.098.378.44.622.806.622.073 0 .146-.012.22-.024.06-.013 5.689-1.502 10.426-.379a.828.828 0 0 0 1.001-.622c.11-.476-.171-.928-.623-1.026Z" fill="#00093C" style="fill:color(display-p3 0 .0353 .2353);fill-opacity:1"/></svg>