<svg width="40" height="57" fill="none" xmlns="http://www.w3.org/2000/svg"><path d="M3.343 56.087h22.342a.813.813 0 1 0 0-1.626H9.061v-7.45a.813.813 0 1 0-1.626 0v7.45H3.343c-1.275 0-1.874-.547-1.69-1.92 2.226-10.872 2.23-11.75 2.594-12.64.064-.089.414-1.344 2.133-2.073.178-.073.067-.024.678-.21.038-.011-.148.052 2.772-.962l1.948 3.596a.813.813 0 1 0 1.43-.775l-1.822-3.362 1.246-.432 6.493 11.986a.998.998 0 0 0 1.683.116c.075-.104-.358.673 6.555-12.106l1.245.432-6.583 12.176c-.868 1.605-3.175 1.606-4.043.002l-2.967-5.476a.813.813 0 1 0-1.43.775l2.967 5.476c1.484 2.739 5.423 2.736 6.904-.003l6.708-12.409c2.913 1.012 2.743.954 2.78.965.573.175.51.14.679.21.621.265.992.57.982.562.637.515 1.077 1.109 1.312 1.983.038.14 2.452 12.107 2.462 12.511.024 1.021-.417 1.578-1.716 1.578H32.57v-7.45a.813.813 0 1 0-1.626 0v7.45H29.48a.813.813 0 1 0 0 1.626h7.182c1.927 0 3.137-.978 3.32-2.684a4.515 4.515 0 0 0-.031-1.156c-2.473-12.417-2.366-11.889-2.378-11.94-.325-1.57-1.236-2.873-2.715-3.69-.69-.382-1.09-.442-1.438-.555l-6.076-2.11-2.025-1.39v-1.575a10.714 10.714 0 0 0 5.191-8.066c2.475.114 4.2-2.25 3.162-4.321v-6.63c0-4.793-2.607-6.46-3.404-6.858C26.371.46 19.094-.733 13.577 2.098l-.01.006c-.095.055-1.232.581-2.632 1.752a.813.813 0 0 0 1.063 1.23c5.403-4.537 13.423-3.371 17.13 1.2a.781.781 0 0 0 .338.246c.106.043 2.58 1.084 2.58 5.44v5.131a3.5 3.5 0 0 0-1.473-.274v-2.66a1.3 1.3 0 0 0-1.182-1.297c-1.367-.132-2.132-1.022-2.534-1.745a1.632 1.632 0 0 0-2.49-.45c-3.626 3.099-7.8 3.256-10.664 2.843a4 4 0 0 0-4.525 3.31 3.517 3.517 0 0 0-1.525.273c.004-2.8-.32-5.845 1.97-9.335a.813.813 0 1 0-1.361-.89C5.146 11.653 6.26 15.931 6.027 18.6c-1.037 2.07.686 4.435 3.162 4.32.404 3.861 2.782 6.083 2.839 6.18.422.404 1.18 1.25 2.658 2.064v1.398l-2.025 1.389c-7.924 2.753-7.12 2.419-7.763 2.812a5.331 5.331 0 0 0-2.412 3.307c-.07.279.046-.248-2.432 12.177-.05.251-.076.74-.031 1.155.183 1.707 1.394 2.685 3.32 2.685Zm18.065-23.712a10.8 10.8 0 0 0 1.237-.257c.069-.022.462-.116 1.048-.342v.902l-3.69 4.106-3.691-4.106v-.79c1.697.59 3.457.726 5.096.487Zm2.031 7.141-2.232-1.64 3.425-3.81 1.278.88-2.47 4.57Zm-1.296 2.397-.2-.618.308-.635.408.3-.515.953Zm-4.801-.95.412-.302.308.634-.202.624-.518-.955Zm1.456-3.087-2.232 1.64-2.47-4.57 1.277-.88 3.425 3.81Zm.289 1.806.916-.673.915.673-.36.74h-1.112l-.36-.74Zm.915 6.192-1.074-1.982.6-1.844h.95l.598 1.84-1.074 1.986ZM32.35 19.876c0 .846-.848 1.469-1.777 1.42v-2.84c.938-.05 1.777.582 1.777 1.42Zm-3.115-5.385h-.001.001Zm-15.764.638c3.197.462 7.865.278 11.953-3.216l.012.003c.785 1.414 2.024 2.307 3.511 2.538v2.88l-.928.547a2.112 2.112 0 0 0-1.737-.912h-3.72c-.878 0-1.632.538-1.951 1.3H19.09a2.117 2.117 0 0 0-1.951-1.3h-3.721c-.72 0-1.355.362-1.737.912l-.924-.545a2.373 2.373 0 0 1 2.714-2.207Zm8.603 3.954c0-.264.223-.488.488-.488h3.72c.265 0 .488.224.488.488v1.62a1.28 1.28 0 0 1-1.279 1.278h-2.138a1.28 1.28 0 0 1-1.28-1.279v-1.619Zm-4.447 0v1.62a1.28 1.28 0 0 1-1.28 1.278h-2.138a1.28 1.28 0 0 1-1.279-1.279v-1.619c0-.264.223-.488.488-.488h3.72c.265 0 .489.224.489.488Zm-10.277.793c0-.847.848-1.47 1.777-1.42v2.84c-.937.05-1.777-.583-1.777-1.42Zm5.596 7.812c-2.632-3.068-2.124-6.046-2.193-8.466l.551.325v1.155a2.908 2.908 0 0 0 2.905 2.906h2.139a2.908 2.908 0 0 0 2.905-2.906v-.806h1.195v.806a2.909 2.909 0 0 0 2.905 2.906h2.138a2.909 2.909 0 0 0 2.906-2.906v-1.155l.55-.325v2.543c0 4.836-3.827 9.038-9.097 9.096l-.11-.001c-1.405-.014-2.485-.375-2.376-.344-1.595-.442-3.117-1.356-4.418-2.828Z" fill="#00093C" style="fill:color(display-p3 0 .0353 .2353);fill-opacity:1"/></svg>