<svg width="60" height="61" fill="none" xmlns="http://www.w3.org/2000/svg"><path d="M11.613 6.382a5.803 5.803 0 0 0-5.806 5.807 5.803 5.803 0 0 0 5.806 5.806 5.803 5.803 0 0 0 5.806-5.806 5.803 5.803 0 0 0-5.806-5.807Zm0 9.678a3.882 3.882 0 0 1-3.871-3.871 3.882 3.882 0 0 1 3.871-3.871 3.882 3.882 0 0 1 3.87 3.87 3.882 3.882 0 0 1-3.87 3.872Zm19.355-4.839h-1.936v1.936h1.936V11.22Zm7.742 0h-5.807v1.936h5.807V11.22Zm0 3.871h-9.678v1.935h9.678v-1.935ZM11.613 47.028H3.87v5.806h7.742v-5.806Zm-1.936 3.87h-3.87v-1.935h3.87V50.9Zm9.678-3.87h-5.806v1.935h5.806v-1.935Zm0 3.87h-5.806v1.936h5.806v-1.936Zm0 3.872H3.87v1.935h15.484v-1.936Z" fill="#00093C" style="fill:color(display-p3 0 .0353 .2353);fill-opacity:1"/><path d="M57.097 33.48H41.613a2.912 2.912 0 0 0-2.903 2.902v6.775h-3.871v-8.855c1.661-.436 2.903-1.936 2.903-3.726a3.857 3.857 0 0 0-2.903-3.726v-5.952h4.838a2.912 2.912 0 0 0 2.904-2.903v-4.838h3.951c.468 2.742 2.855 4.838 5.726 4.838a5.803 5.803 0 0 0 5.097-8.58L59.71 7.06l-1.371-1.371-2.194 2.193a5.796 5.796 0 0 0-3.887-1.516c-2.87 0-5.258 2.097-5.726 4.839h-3.951V6.366a2.912 2.912 0 0 0-2.904-2.903H28.064a2.912 2.912 0 0 0-2.903 2.903v4.839h-1.935v-1.71l-2.549-.693c-.08-.226-.177-.436-.274-.662l1.307-2.29-3.774-3.774-2.29 1.306c-.227-.096-.436-.193-.662-.274L14.29.576H8.935l-.693 2.548c-.226.081-.436.178-.661.275L5.29 2.092 1.515 5.866l1.307 2.29c-.097.226-.194.436-.275.662L0 9.51v5.355l2.548.694c.081.226.178.435.275.661l-1.307 2.29 3.774 3.775 2.29-1.307c.226.097.436.194.662.274l.693 2.533h1.71v15.483H2.903A2.912 2.912 0 0 0 0 42.174v15.484a2.912 2.912 0 0 0 2.903 2.903h17.42a2.912 2.912 0 0 0 2.903-2.903V42.173a2.912 2.912 0 0 0-2.903-2.904H12.58V23.787h1.71l.693-2.549c.226-.08.435-.177.661-.274l2.29 1.306 3.79-3.774-1.306-2.29c.097-.226.194-.435.274-.661l2.533-.694v-1.71h1.935v4.84a2.912 2.912 0 0 0 2.903 2.902h4.84v5.952C31.241 27.27 30 28.77 30 30.56a3.843 3.843 0 0 0 2.903 3.726v10.79h5.807v6.774a2.912 2.912 0 0 0 2.903 2.903h15.484A2.912 2.912 0 0 0 60 51.85V36.366a2.898 2.898 0 0 0-2.903-2.887ZM52.258 8.317c.968 0 1.839.37 2.516.951l-2.516 2.517L51 10.528l-1.371 1.37 2.613 2.613 3.629-3.629c.145.404.242.84.242 1.29a3.882 3.882 0 0 1-3.871 3.872 3.882 3.882 0 0 1-3.871-3.871c0-2.13 1.758-3.855 3.887-3.855ZM20.323 58.64H2.903a.97.97 0 0 1-.968-.967v-12.58H21.29v12.58a.97.97 0 0 1-.967.967Zm.967-16.451v.968H1.935v-.968a.97.97 0 0 1 .968-.968h17.42a.97.97 0 0 1 .967.968Zm0-28.807-2.129.581-.161.5a8.49 8.49 0 0 1-.548 1.323l-.242.467 1.096 1.92-1.693 1.71-1.92-1.097-.467.241c-.436.226-.887.42-1.323.549l-.5.161-.58 2.113h-2.388l-.58-2.129-.5-.161a8.49 8.49 0 0 1-1.323-.549l-.467-.241-1.92 1.096-1.693-1.693 1.096-1.92-.242-.467a7.658 7.658 0 0 1-.548-1.323l-.161-.5-2.113-.58v-2.388l2.129-.58.161-.5c.145-.452.323-.887.549-1.323l.242-.468-1.097-1.919L5.66 4.511l1.92 1.097.467-.242c.436-.226.887-.42 1.323-.548l.5-.161.58-2.13h2.388l.58 2.13.5.16a8.48 8.48 0 0 1 1.323.55l.468.241 1.919-1.097 1.694 1.694-1.097 1.92.242.467c.226.436.42.887.548 1.323l.161.5 2.13.58-.017 2.387Zm6.774-7.967h11.613a.97.97 0 0 1 .968.967v.968H27.097v-.968a.97.97 0 0 1 .967-.967Zm-.967 12.58v-8.71h13.548v8.71a.97.97 0 0 1-.968.968H28.064a.97.97 0 0 1-.967-.968Zm4.838 12.58c0-1.064.871-1.935 1.936-1.935 1.064 0 1.935.871 1.935 1.936a1.94 1.94 0 0 1-1.935 1.935 1.941 1.941 0 0 1-1.936-1.935Zm9.678 4.84h15.484a.97.97 0 0 1 .968.967v.968h-17.42v-.968a.97.97 0 0 1 .968-.967Zm15.484 17.419H41.613a.97.97 0 0 1-.968-.968v-12.58h17.42v12.58a.97.97 0 0 1-.968.968Z" fill="#00093C" style="fill:color(display-p3 0 .0353 .2353);fill-opacity:1"/><path d="M48.387 41.221h-5.806v5.807h5.806V41.22Zm-1.935 3.871h-1.936v-1.935h1.936v1.935Zm9.677-3.871h-5.806v1.936h5.806V41.22Zm0 3.871h-5.806v1.935h5.806v-1.935Zm0 3.871H42.581v1.935h13.548v-1.935Z" fill="#00093C" style="fill:color(display-p3 0 .0353 .2353);fill-opacity:1"/></svg>