<svg width="57" height="47" fill="none" xmlns="http://www.w3.org/2000/svg"><path d="M53.617 3.492h-2.355V1.255c0-.46-.37-.83-.83-.83h-5.023c-.459 0-.83.37-.83.83v2.237h-27.54V1.255c0-.46-.37-.83-.83-.83h-5.022c-.46 0-.83.37-.83.83v2.237H8.415a3.7 3.7 0 0 0-3.689 3.69v20.282a.83.83 0 1 0 1.66 0V7.18c0-1.111.903-2.03 2.029-2.03h45.217c.89 0 1.615.726 1.615 1.615v27.557c0 .89-.726 1.615-1.615 1.615h-1.778v-3.156c0-.459-.37-.83-.83-.83h-8.948c-.46 0-.83.371-.83.83v3.156H27.853l3.156-.86a8.07 8.07 0 0 0 4.133-2.68l5.364-6.52a.903.903 0 0 0 .192-.459l.474-6.222a1.491 1.491 0 0 0-.889-1.452.847.847 0 0 0 .43-.726c0-.46-.37-.83-.83-.83H36.24c-.46 0-.83.37-.83.83 0 .459.37.83.83.83h2.726c-.09.059-.178.133-.252.207l-3.052 3.052c-.593.593-1.082 1.333-1.6 1.985-.282.356-.237.89.133 1.17.356.282.89.238 1.17-.133l.964-1.185 2.459 2.46-4.874 5.94a6.448 6.448 0 0 1-3.29 2.134l-13.156 3.793c-1.022.326-.503 1.91.504 1.585l2.89-.934v6.979h-1.157a.829.829 0 1 0 0 1.659h5.097c.46 0 .83-.37.83-.83 0-.459-.37-.83-.83-.83h-2.267v-7.289h31.128a3.275 3.275 0 0 0 3.274-3.274V6.781c-.044-1.822-1.511-3.289-3.319-3.289Zm-7.393-1.407h3.364v1.392h-3.364V2.085ZM12 2.085h3.364v1.392H12V2.085ZM39.468 19.61l-.296 3.852-1.778-1.777 2.075-2.075Zm3.408 16.327v-2.326h7.29v2.326h-7.29Z" fill="#00093C" style="fill:color(display-p3 0 .0353 .2353);fill-opacity:1"/><path d="M15.675 44.902H4.978v-4.43c0-2.815.652-5.615 1.882-8.134a4.086 4.086 0 0 1 3.644-2.267H24.55c2.934 0 5.793-1.037 8.045-2.918a.826.826 0 0 0 .104-1.17.826.826 0 0 0-1.17-.105 10.91 10.91 0 0 1-6.964 2.534H18.52a5.415 5.415 0 0 0 1.51-3.748v-3.067a4.114 4.114 0 0 0 3.838-4.104 4.129 4.129 0 0 0-4.119-4.119c-1.392-.03-2.711.296-3.674 1.348a2.525 2.525 0 0 1-1.852.815h-2.296a3.471 3.471 0 0 0-3.467 3.467v6.252c0 .711.163 1.408.592 1.985.193.267.43.49.697.667.296.193.71.267.948.504-2.237-.044-4.356 1.185-5.334 3.2a20.254 20.254 0 0 0-2.06 8.875v4.43H.83c-.46 0-.83.37-.83.83 0 .459.37.829.83.829h14.845c.46 0 .83-.37.83-.83a.823.823 0 0 0-.83-.844Zm-1.304-16.52a3.769 3.769 0 0 1-1.333-.34c.192-.104.385-.223.548-.356.696-.578 1.081-1.422 1.081-2.385v-3.704h3.69v3.052a3.753 3.753 0 0 1-3.749 3.748c-.089 0-.163 0-.237-.015Zm-4.237-3.14v-6.253c0-.992.815-1.807 1.807-1.807h2.282c1.17 0 2.282-.49 3.082-1.348.651-.712 1.54-.845 2.459-.815a2.447 2.447 0 0 1 2.445 2.444 2.447 2.447 0 0 1-2.445 2.445h-5.926c-.46 0-.83.37-.83.83v4.548c0 .978-.86 1.585-1.793 1.407-.74-.118-1.081-.726-1.081-1.452Zm18.401-12.09h4.533c.46 0 .83-.37.83-.83V9.255c0-.459-.37-.83-.83-.83h-4.533c-.46 0-.83.371-.83.83v3.067c-.015.46.356.83.83.83Zm.83-3.067h2.874v1.393h-2.875v-1.393ZM27.69 18.53c0 .46.37.83.83.83h4.533c.46 0 .83-.37.83-.83v-3.067c0-.46-.37-.83-.83-.83H28.52c-.46 0-.83.37-.83.83v3.067Zm1.674-2.222h2.875V17.7h-2.875v-1.392Zm6.846-4.697h14.785c.46 0 .83-.37.83-.83 0-.459-.37-.83-.83-.83H36.21a.83.83 0 1 0 0 1.66Z" fill="#00093C" style="fill:color(display-p3 0 .0353 .2353);fill-opacity:1"/></svg>